<?xml version="1.0" standalone="no"?>
<!DOCTYPE svg PUBLIC "-//W3C//DTD SVG 20010904//EN"
 "http://www.w3.org/TR/2001/REC-SVG-20010904/DTD/svg10.dtd">
<svg version="1.0" xmlns="http://www.w3.org/2000/svg"
 width="153.000000pt" height="153.000000pt" viewBox="0 0 153.000000 153.000000"
 preserveAspectRatio="xMidYMid meet">

<g transform="translate(0.000000,153.000000) scale(0.100000,-0.100000)"
fill="#000000" stroke="none">
<path d="M0 765 l0 -765 765 0 765 0 0 765 0 765 -765 0 -765 0 0 -765z m780
643 c28 -31 26 -72 -6 -97 -15 -12 -35 -21 -46 -21 -11 0 -53 -36 -100 -85
l-82 -85 0 -260 -1 -259 -71 -73 c-40 -40 -75 -85 -78 -101 -14 -59 -68 -84
-114 -51 -50 34 -14 124 50 124 22 0 44 16 93 64 l64 64 -1 262 0 261 86 87
c58 59 86 95 86 110 0 26 17 63 34 74 22 15 66 8 86 -14z m339 -4 c12 -15 21
-35 21 -46 0 -27 -45 -68 -75 -68 -19 0 -50 -24 -123 -98 -54 -54 -106 -109
-115 -122 -15 -22 -17 -57 -17 -311 l0 -287 -120 -121 c-85 -86 -120 -128
-120 -145 0 -34 -43 -76 -78 -76 -41 0 -64 29 -60 76 3 36 6 40 52 57 38 14
75 43 158 126 l108 108 0 297 0 296 125 127 c87 88 125 134 125 150 0 59 82
84 119 37z m-801 -172 c17 -21 8 -83 -13 -94 -12 -8 -15 -35 -15 -166 0 -144
2 -161 22 -200 21 -39 22 -44 8 -69 -8 -14 -23 -31 -32 -37 -25 -15 -70 4 -86
37 -12 25 -11 33 7 68 19 35 21 57 21 199 0 125 -3 161 -14 167 -7 4 -17 22
-21 40 -5 27 -2 37 20 59 21 21 32 25 58 20 18 -3 38 -14 45 -24z m974 -89
c11 -10 18 -30 18 -53 0 -33 -4 -40 -34 -54 -19 -9 -40 -16 -46 -16 -12 0 -69
-56 -141 -138 l-29 -33 0 -259 0 -260 -75 -74 c-48 -48 -75 -82 -75 -97 0 -24
-43 -69 -65 -69 -53 0 -87 48 -69 99 8 21 18 27 52 32 36 5 54 16 107 69 l65
64 0 263 0 262 58 63 c106 115 112 123 112 144 0 12 9 33 21 48 24 31 72 35
101 9z m25 -365 c27 -25 30 -64 7 -89 -25 -28 -25 -296 0 -334 23 -35 17 -74
-16 -98 -35 -26 -75 -15 -98 26 -14 25 -13 30 8 67 20 35 22 53 22 167 0 109
-3 134 -20 166 -25 46 -25 58 1 91 25 32 64 34 96 4z"/>
</g>
</svg>
